<svg xmlns="http://www.w3.org/2000/svg" width="26" height="26" viewBox="0 0 26 26"><g transform="translate(3 3)"><g fill="#0aa67a"><path d="M 10 21.5 C 6.928239822387695 21.5 4.040329933166504 20.30378913879395 1.868270039558411 18.13172912597656 C -0.3037900030612946 15.9596700668335 -1.5 13.0717601776123 -1.5 10 C -1.5 6.928239822387695 -0.3037900030612946 4.040329933166504 1.868270039558411 1.868270039558411 C 4.040329933166504 -0.3037900030612946 6.928239822387695 -1.5 10 -1.5 C 13.0717601776123 -1.5 15.9596700668335 -0.3037900030612946 18.13172912597656 1.868270039558411 C 20.30378913879395 4.040329933166504 21.5 6.928239822387695 21.5 10 C 21.5 13.0717601776123 20.30378913879395 15.9596700668335 18.13172912597656 18.13172912597656 C 15.9596700668335 20.30378913879395 13.0717601776123 21.5 10 21.5 Z" stroke="none"/><path d="M 10 0 C 4.477149963378906 0 0 4.477149963378906 0 10 C 0 15.52285003662109 4.477149963378906 20 10 20 C 15.52285003662109 20 20 15.52285003662109 20 10 C 20 4.477149963378906 15.52285003662109 0 10 0 M 10 -3 C 13.47243022918701 -3 16.73701095581055 -1.647760391235352 19.19239044189453 0.8076095581054688 C 21.64776039123535 3.262990951538086 23 6.527569770812988 23 10 C 23 13.47243022918701 21.64776039123535 16.73701095581055 19.19239044189453 19.19239044189453 C 16.73701095581055 21.64776039123535 13.47243022918701 23 10 23 C 6.527569770812988 23 3.262990951538086 21.64776039123535 0.8076095581054688 19.19239044189453 C -1.647760391235352 16.73701095581055 -3 13.47243022918701 -3 10 C -3 6.527569770812988 -1.647760391235352 3.262990951538086 0.8076095581054688 0.8076095581054688 C 3.262990951538086 -1.647760391235352 6.527569770812988 -3 10 -3 Z" stroke="none" fill="#0aa67a"/></g></g></svg>