<svg xmlns="http://www.w3.org/2000/svg" width="24" height="44.571" viewBox="0 0 24 44.571"><path d="M1408,352v42a2.571,2.571,0,0,0,2.571,2.571h7.714v-6.857h3.429v6.857h7.714A2.571,2.571,0,0,0,1432,394V352Zm6.857,41.143h-3.429v-3.429h3.429Zm0-6.857h-3.429v-3.429h3.429Zm0-6.857h-3.429V376h3.429Zm0-6.857h-3.429v-3.429h3.429Zm0-6.857h-3.429v-3.429h3.429Zm0-6.857h-3.429v-3.429h3.429Zm6.857,27.429h-3.429v-3.429h3.429Zm0-6.857h-3.429V376h3.429Zm0-6.857h-3.429v-3.429h3.429Zm0-6.857h-3.429v-3.429h3.429Zm0-6.857h-3.429v-3.429h3.429Zm6.857,34.286h-3.429v-3.429h3.429Zm0-6.857h-3.429v-3.429h3.429Zm0-6.857h-3.429V376h3.429Zm0-6.857h-3.429v-3.429h3.429Zm0-6.857h-3.429v-3.429h3.429Zm0-6.857h-3.429v-3.429h3.429Z" transform="translate(-1408 -352)" fill="#dcdcdc"/></svg>