<svg xmlns="http://www.w3.org/2000/svg" width="50" height="30" viewBox="0 0 50 30"><path d="M1287.418,435.369a53.779,53.779,0,0,1-6.918.8v-3.5a.67.67,0,0,0-.671-.671h-7.659a.671.671,0,0,0-.671.671v3.5a53.751,53.751,0,0,1-6.917-.8.488.488,0,0,0-.583.481v23.9a2.25,2.25,0,0,0,2.25,2.25h19.5a2.25,2.25,0,0,0,2.25-2.25v-23.9A.487.487,0,0,0,1287.418,435.369ZM1273,433.692a.192.192,0,0,1,.192-.192h5.617a.192.192,0,0,1,.191.192v2.548c-.974.036-1.975.057-3,.057s-2.026-.021-3-.057Z" transform="translate(-1264 -432)" fill="#dcdcdc"/><path d="M1287.418,435.369a53.779,53.779,0,0,1-6.918.8v-3.5a.67.67,0,0,0-.671-.671h-7.659a.671.671,0,0,0-.671.671v3.5a53.751,53.751,0,0,1-6.917-.8.488.488,0,0,0-.583.481v23.9a2.25,2.25,0,0,0,2.25,2.25h19.5a2.25,2.25,0,0,0,2.25-2.25v-23.9A.487.487,0,0,0,1287.418,435.369ZM1273,433.692a.192.192,0,0,1,.192-.192h5.617a.192.192,0,0,1,.191.192v2.548c-.974.036-1.975.057-3,.057s-2.026-.021-3-.057Z" transform="translate(-1238 -432)" fill="#dcdcdc"/></svg>